<?xml version="1.0" encoding="UTF-8" standalone="no"?><!DOCTYPE svg PUBLIC "-//W3C//DTD SVG 1.1//EN" "http://www.w3.org/Graphics/SVG/1.1/DTD/svg11.dtd"><svg width="100%" height="100%" viewBox="0 0 8632 3500" version="1.1" xmlns="http://www.w3.org/2000/svg" xmlns:xlink="http://www.w3.org/1999/xlink" xml:space="preserve" xmlns:serif="http://www.serif.com/" style="fill-rule:evenodd;clip-rule:evenodd;stroke-linejoin:round;stroke-miterlimit:2;"><g><path d="M1617.02,692.292c-86.627,-322.202 -166.836,-613.504 -432.903,-613.504c-266.068,0 -346.263,291.302 -432.891,613.504c-54.544,202.889 -116.367,432.89 -230.313,602.59c-123.984,184.714 -289.283,270.937 -520.351,271.068c-0.313,-0 -0.56,0.248 -0.56,0.56l0,180.69c0,0.325 0.26,0.572 0.573,0.572c348.138,-0.182 554.609,-165.416 690.651,-382.889c100.521,-160.678 167.786,-365.834 235.612,-625.313c77.643,-297.031 138.88,-478.959 257.279,-478.959c118.411,0 179.648,181.928 257.291,478.959c67.787,259.336 208.724,645.391 546.25,645.82c0.313,-0 0.586,-0.26 0.586,-0.573l0,-180.703c0,-0.3 -0.247,-0.546 -0.56,-0.546c-207.33,-0.534 -316.185,-308.568 -370.664,-511.276Z" style="fill:#20254e;fill-rule:nonzero;"/><path d="M527.721,741.835c126.237,-492.8 216.029,-607.969 261.302,-647.305c5.977,-5.194 1.954,-15.012 -5.95,-14.518c-310,19.283 -355.169,339.101 -430.664,613.647c-72.735,264.492 -133.828,455.416 -263.672,499.661c-7.227,2.461 -40.286,10.183 -88.177,10.248c-0.3,-0 -0.56,0.246 -0.56,0.559l0,180.703c0,0.313 0.221,0.56 0.534,0.56c45.69,-0.026 127.344,-3.399 197.773,-39.388c208.724,-106.693 286.25,-435.691 329.414,-604.167Z" style="fill:#20254e;fill-rule:nonzero;"/><path d="M1445.73,1247.3c-107.265,-177.24 -195.846,-513.268 -253.568,-707.382c-2.291,-7.697 -13.085,-7.865 -15.716,-0.274c-29.935,86.432 -69.635,234.336 -81.81,280.338c-2.421,9.18 -2.304,18.79 0.43,27.891c34.102,113.945 75.82,240.678 127.149,355.676l-242.305,0c-3.386,0 -6.38,1.981 -7.617,5.131c-18.985,48.125 -48.763,116.159 -72.657,164.87c-2.682,5.469 1.342,11.836 7.435,11.836l413.373,0.052c134.856,207.409 347.734,362.148 667.213,362.33c0.313,0 0.586,-0.247 0.586,-0.572l0,-180.69c0,-0.312 -0.26,-0.56 -0.56,-0.56c-261.666,-0.182 -433.242,-131.042 -541.953,-318.646Z" style="fill:#20254e;fill-rule:nonzero;"/><path d="M2350.6,1747.77l494.323,0l-0,-181.262l-130.365,-0l61.628,-181.12l462.825,-0l55.86,181.12l-130.3,-0l0,181.262l496.185,0l0,-181.262l-120.534,-0l-396.106,-1138.19l-276.902,0l-396.145,1138.19l-120.469,-0l-0,181.262Zm471.992,-544.219l156.146,-448.138c18.581,-65.051 24.154,-115.246 24.154,-115.246l5.573,-0c-0,-0 3.711,50.195 24.153,115.246l154.766,448.138l-364.792,0Zm902.149,205.991c-0,258.32 120.781,360.521 310.338,360.521c228.151,-0 326.368,-162.422 343.841,-203.555l5.156,-0c-0.546,7.343 -1.497,22.734 -1.497,40.039l0,35.3c0,66.913 39.05,105.923 122.669,105.923l234.154,0l-0,-181.262l-91.068,-0c-31.757,-0 -40.872,-8.295 -40.872,-34.297l-0,-732.213l-380.964,-0l0,176.549l144.935,-0l0,245.286c0,170.977 -98.489,338.242 -262.018,338.242c-118.945,0 -148.672,-78.059 -148.672,-191.406l0,-568.671l-382.825,-0l-0,176.549l146.823,-0l-0,432.995Zm2007.1,-9.297c-0,317.799 262.044,356.823 395.833,356.823c42.761,-0 72.487,-5.573 72.487,-5.573l0,-184.987l-42.734,-0c-66.914,-0 -189.557,-28.724 -189.557,-190.417l-0,-399.544l215.559,-0l0,-176.549l-215.559,-0l-0,-258.32l-228.594,-0l-0,258.32l-152.37,-0l0,176.549l144.935,-0l-0,423.698Zm693.125,-761.94l237.877,0l0,-209.988l-237.877,0l0,209.988Zm-135.651,1109.46l509.18,0l-0,-181.262l-135.652,-0l0,-766.51l-382.825,-0l-0,176.549l146.797,-0l0,589.961l-137.5,-0l0,181.262Zm598.385,0l509.193,0l-0,-181.262l-135.677,-0l0,-244.297c0,-165.404 100.377,-328.945 271.328,-328.945c118.959,0 150.534,78.06 150.534,193.267l-0,561.237l371.679,0l0,-181.262l-137.525,-0l-0,-428.269c-0,-250.897 -115.222,-360.533 -317.774,-360.533c-237.865,-0 -338.242,182.123 -349.388,211.849l-3.711,-0c0,-0 3.711,-20.444 3.711,-40.873l0,-42.76c0,-66.914 -39.01,-105.924 -122.643,-105.924l-249.036,-0l-0,176.549l105.95,-0c26.016,-0 40.872,14.856 40.872,40.873l0,549.088l-137.513,-0l-0,181.262Z" style="fill:#20254e;fill-rule:nonzero;"/><path d="M4780.53,1541.5c-0,154.232 211.849,228.568 384.687,228.568c217.422,-0 399.545,-96.628 399.545,-288.047c-0,-185.833 -170.977,-245.287 -315.938,-291.759c-105.924,-31.587 -198.854,-63.189 -198.854,-141.223c0,-59.479 63.203,-85.495 137.539,-85.495c83.633,-0 139.362,29.727 139.362,78.059l0,53.881l202.565,0l0,-120.794c0,-143.098 -204.414,-196.979 -341.927,-196.979c-172.838,-0 -373.541,70.624 -373.541,271.328c-0,180.26 159.83,245.287 299.205,293.62c126.354,46.445 215.56,66.888 215.56,146.796c0,63.191 -66.888,96.641 -161.667,96.641c-98.489,-0 -185.833,-33.45 -185.833,-98.503l-0,-55.729l-200.703,0l-0,109.636Z" style="fill:#20254e;fill-rule:nonzero;"/><path d="M2515.65,2660.77l99.87,-0l-0,-458.633l165.169,-0l0,-86.81l-430.977,-0l0,86.81l165.938,-0l-0,458.633Z" style="fill:#20254e;fill-rule:nonzero;"/><path d="M2919.75,2424.15c-0,-20.989 3.45,-38.021 10.364,-51.094c6.914,-13.059 17.292,-22.656 31.12,-28.801c13.828,-6.133 31.224,-9.219 52.227,-9.219l38.424,-0l-0,-84.505l-37.656,-0c-29.701,-0 -53.138,8.84 -70.287,26.497c-11.901,12.252 -21.08,29.856 -27.682,52.552l-2.669,-79.049l-92.188,-0l0,410.234l98.347,-0l-0,-236.615Z" style="fill:#20254e;fill-rule:nonzero;"/><path d="M3195.14,2585.48c-10.495,-8.699 -15.742,-21.004 -15.742,-36.863c-0,-14.349 4.727,-25.989 14.206,-34.961c9.479,-8.958 25.221,-15.755 47.252,-20.351l106.016,-21.524l0,23.047c0,21.003 -4.375,39.193 -13.073,54.545c-8.698,15.364 -20.99,27.408 -36.862,36.107c-15.872,8.723 -34.831,13.072 -56.849,13.072c-19.466,0 -34.453,-4.349 -44.948,-13.072Zm145.195,40.325c8.594,-8.907 15.066,-18.672 19.844,-29.128c1.719,12.005 4.597,22.383 8.972,30.677c7.174,13.581 17.409,23.047 30.729,28.425c13.32,5.364 28.424,8.059 45.325,8.059c7.162,0 14.206,-0.26 21.133,-0.768c6.901,-0.507 11.901,-1.289 14.974,-2.304l-0,-71.433l-13.06,0c-7.682,0 -13.45,-2.057 -17.292,-6.158c-3.828,-4.089 -5.755,-11.524 -5.755,-22.279l0,-149.037c0,-54.792 -14.974,-96.914 -44.947,-126.366c-29.949,-29.454 -74.128,-44.18 -132.514,-44.18c-50.703,-0 -91.927,11.666 -123.684,34.961c-31.758,23.307 -51.732,56.718 -59.922,100.247l99.869,4.609c5.118,-20.482 14.467,-36.224 28.034,-47.253c13.568,-10.989 32.149,-16.51 55.703,-16.51c26.12,0 45.834,7.292 59.154,21.901c13.308,14.597 19.974,36.484 19.974,65.677l-135.977,26.888c-45.065,8.725 -78.619,23.047 -100.638,43.034c-22.018,19.961 -33.034,47.618 -33.034,82.969c0,35.338 13.06,62.864 39.18,82.565c26.12,19.727 60.69,29.584 103.711,29.584c25.599,-0 48.646,-3.842 69.141,-11.524c20.482,-7.683 37.513,-18.554 51.08,-32.656Z" style="fill:#20254e;fill-rule:nonzero;"/><path d="M3832.01,2261.29c-20.742,-13.308 -46.237,-19.974 -76.445,-19.974c-22.018,-0 -42.253,4.114 -60.69,12.291c-18.438,8.203 -34.063,21.016 -46.862,38.424c-6.12,8.321 -11.185,18.022 -15.313,28.92l-2.356,-70.416l-89.115,-0l0,410.234l98.333,-0l0,-231.993c0,-34.83 7.8,-61.471 23.438,-79.909c15.612,-18.437 36.484,-27.656 62.604,-27.656c17.409,0 31.367,4.232 41.875,12.669c10.482,8.464 18.047,20.626 22.656,36.498c4.61,15.885 6.914,35.338 6.914,58.398l0,231.993l98.334,-0l-0,-263.49c-0,-30.742 -5.378,-57.748 -16.133,-81.055c-10.755,-23.307 -26.498,-41.601 -47.24,-54.934Z" style="fill:#20254e;fill-rule:nonzero;"/><path d="M4209.96,2583.55c-13.047,7.448 -31.107,11.146 -54.154,11.146c-28.177,-0 -49.427,-5.873 -63.763,-17.67c-14.349,-11.77 -23.307,-28.411 -26.888,-49.934l-100.638,4.609c2.044,26.641 10.495,50.456 25.352,71.446c14.844,21.002 35.976,37.395 63.385,49.179c27.383,11.771 61.315,17.657 101.784,17.657c35.339,-0 66.185,-4.74 92.578,-14.206c26.367,-9.466 46.862,-23.438 61.459,-41.875c14.583,-18.438 21.888,-40.717 21.888,-66.823c-0,-22.54 -5.261,-41.875 -15.756,-58.021c-10.495,-16.12 -28.164,-29.427 -52.994,-39.935c-24.857,-10.495 -58.776,-19.075 -101.797,-25.742c-20.482,-3.581 -36.875,-7.553 -49.167,-11.914c-12.292,-4.336 -21.133,-10.104 -26.497,-17.279c-5.378,-7.161 -8.073,-16.133 -8.073,-26.888c-0,-15.365 5.885,-27.656 17.669,-36.875c11.771,-9.219 29.193,-13.828 52.24,-13.828c15.364,-0 28.671,2.682 39.947,8.06c11.263,5.391 20.222,13.203 26.889,23.437c6.653,10.248 11.262,22.279 13.828,36.107l99.101,-4.609c-3.58,-26.628 -12.422,-50.313 -26.497,-71.055c-14.102,-20.755 -33.685,-37.123 -58.776,-49.167c-25.105,-12.031 -56.081,-18.059 -92.956,-18.059c-56.849,-0 -100,11.914 -129.44,35.716c-29.466,23.814 -44.18,54.934 -44.18,93.346c0,23.568 5,43.281 14.974,59.153c9.987,15.886 27.019,29.076 51.094,39.558c24.062,10.508 57.096,19.349 99.102,26.511c25.091,4.609 44.036,9.218 56.848,13.828c12.8,4.609 21.511,9.986 26.12,16.132c4.61,6.146 6.914,13.842 6.914,23.06c0,15.859 -6.536,27.526 -19.596,34.935Z" style="fill:#20254e;fill-rule:nonzero;"/><path d="M4670.91,2554.37c-17.175,23.815 -40.599,35.716 -70.3,35.716c-19.974,0 -37.253,-4.999 -51.862,-14.973c-14.583,-10 -25.729,-24.975 -33.411,-44.935c-7.683,-19.988 -11.524,-44.818 -11.524,-74.531c0,-29.688 3.971,-54.532 11.914,-74.519c7.93,-19.974 19.076,-34.948 33.412,-44.948c14.336,-9.974 31.497,-14.974 51.471,-14.974c29.701,0 53.125,11.914 70.3,35.73c17.148,23.815 25.729,56.718 25.729,98.711c-0,42.004 -8.581,74.908 -25.729,98.723Zm50.703,-283.866c-25.873,-19.454 -58.269,-29.193 -97.188,-29.193c-31.237,-0 -58.516,7.825 -81.81,23.437c-17.291,11.589 -30.937,27.227 -41.029,46.836l-1.614,-61.054l-94.492,-0l-0,525.481l98.333,0l0,-171.758c4.675,8.763 10.352,16.901 17.279,24.245c12.552,13.333 27.656,23.567 45.338,30.729c17.669,7.175 36.745,10.756 57.227,10.756c38.919,-0 71.315,-9.714 97.187,-29.193c25.86,-19.454 45.326,-45.326 58.386,-77.592c13.06,-32.265 19.583,-68.111 19.583,-107.551c0,-39.428 -6.406,-75.287 -19.206,-107.553c-12.799,-32.266 -32.148,-58.124 -57.994,-77.59Z" style="fill:#20254e;fill-rule:nonzero;"/><path d="M4981.64,2356.94c17.409,-23.816 41.992,-35.73 73.75,-35.73c31.757,0 56.211,11.914 73.372,35.73c17.148,23.815 25.729,56.718 25.729,98.711c0,42.526 -8.581,75.559 -25.729,99.101c-17.161,23.567 -41.615,35.338 -73.372,35.338c-31.758,0 -56.341,-11.771 -73.75,-35.338c-17.409,-23.542 -26.12,-56.575 -26.12,-99.101c0,-41.993 8.711,-74.896 26.12,-98.711Zm-32.644,286.549c30.469,17.656 65.938,26.498 106.394,26.498c40.455,-0 75.794,-8.842 106.015,-26.498c30.222,-17.682 53.646,-42.643 70.3,-74.909c16.64,-32.265 24.961,-69.909 24.961,-112.929c-0,-43.529 -8.321,-81.303 -24.961,-113.308c-16.654,-32.005 -40.078,-56.848 -70.3,-74.531c-30.221,-17.657 -65.56,-26.497 -106.015,-26.497c-40.456,-0 -75.925,8.84 -106.394,26.497c-30.481,17.683 -54.049,42.526 -70.677,74.531c-16.653,32.005 -24.974,69.779 -24.974,113.308c0,43.02 8.321,80.664 24.974,112.929c16.628,32.266 40.196,57.227 70.677,74.909Z" style="fill:#20254e;fill-rule:nonzero;"/><path d="M5452.96,2277.03c-11.901,12.252 -21.081,29.856 -27.682,52.552l-2.67,-79.049l-92.187,-0l-0,410.234l98.333,-0l0,-236.615c0,-20.989 3.464,-38.021 10.378,-51.094c6.914,-13.059 17.291,-22.656 31.119,-28.801c13.829,-6.133 31.224,-9.219 52.227,-9.219l38.411,-0l0,-84.505l-37.643,-0c-29.7,-0 -53.138,8.84 -70.286,26.497Z" style="fill:#20254e;fill-rule:nonzero;"/><path d="M5891.24,2660.77l-0,-76.055l-57.617,0c-17.422,0 -30.234,-3.711 -38.412,-11.133c-8.203,-7.422 -12.304,-20.612 -12.304,-39.557l-0,-207.435l108.333,-0l-0,-76.054l-108.333,-0l-0,-96.029l-98.334,-0l0,96.029l-64.531,-0l-0,76.054l64.531,-0l0,216.654c0,40.455 9.61,70.156 28.815,89.101c19.206,18.945 49.297,28.425 90.261,28.425l87.591,-0Z" style="fill:#20254e;fill-rule:nonzero;"/><path d="M6210.81,2494.83c0,21.003 -4.349,39.193 -13.073,54.545c-8.698,15.364 -21.015,27.408 -36.875,36.107c-15.872,8.723 -34.83,13.072 -56.849,13.072c-19.466,0 -34.44,-4.349 -44.934,-13.072c-10.495,-8.699 -15.756,-21.004 -15.756,-36.863c0,-14.349 4.727,-25.989 14.219,-34.961c9.479,-8.958 25.221,-15.755 47.253,-20.351l106.015,-21.524l0,23.047Zm104.089,88.347c-3.841,-4.089 -5.781,-11.524 -5.781,-22.279l-0,-149.037c-0,-54.792 -14.974,-96.914 -44.935,-126.366c-29.961,-29.454 -74.128,-44.18 -132.513,-44.18c-50.69,-0 -91.928,11.666 -123.685,34.961c-31.758,23.307 -51.719,56.718 -59.909,100.247l99.87,4.609c5.104,-20.482 14.453,-36.224 28.034,-47.253c13.567,-10.989 32.135,-16.51 55.69,-16.51c26.133,0 45.846,7.292 59.14,21.901c13.334,14.597 20,36.484 20,65.677l-135.989,26.888c-45.066,8.725 -78.62,23.047 -100.625,43.034c-22.031,19.961 -33.034,47.618 -33.034,82.969c-0,35.338 13.047,62.864 39.167,82.565c26.119,19.727 60.69,29.584 103.71,29.584c25.613,-0 48.659,-3.842 69.141,-11.524c20.495,-7.683 37.513,-18.554 51.094,-32.656c8.581,-8.907 15.052,-18.672 19.843,-29.128c1.706,12.005 4.584,22.383 8.959,30.677c7.174,13.581 17.396,23.047 30.729,28.425c13.32,5.364 28.425,8.059 45.313,8.059c7.174,0 14.218,-0.26 21.132,-0.768c6.928,-0.507 11.901,-1.289 14.987,-2.304l0,-71.433l-13.046,0c-7.683,0 -13.451,-2.057 -17.292,-6.158Z" style="fill:#20254e;fill-rule:nonzero;"/><path d="M6419.74,2543.24c-0,40.455 9.609,70.156 28.801,89.101c19.219,18.945 49.284,28.425 90.274,28.425l87.578,-0l0,-76.055l-57.617,0c-17.409,0 -30.234,-3.711 -38.411,-11.133c-8.19,-7.422 -12.292,-20.612 -12.292,-39.557l0,-207.435l108.32,-0l0,-76.054l-108.32,-0l0,-96.029l-98.333,-0l-0,96.029l-64.532,-0l0,76.054l64.532,-0l-0,216.654Z" style="fill:#20254e;fill-rule:nonzero;"/><rect x="6695.52" y="2108.41" width="102.188" height="87.591" style="fill:#20254e;fill-rule:nonzero;"/><rect x="6697.06" y="2250.53" width="98.333" height="410.234" style="fill:#20254e;fill-rule:nonzero;"/><path d="M7002.83,2356.94c17.396,-23.816 41.979,-35.73 73.75,-35.73c31.744,0 56.185,11.914 73.359,35.73c17.148,23.815 25.729,56.718 25.729,98.711c0,42.526 -8.581,75.559 -25.729,99.101c-17.174,23.567 -41.615,35.338 -73.359,35.338c-31.771,0 -56.354,-11.771 -73.75,-35.338c-17.422,-23.542 -26.121,-56.575 -26.121,-99.101c0,-41.993 8.699,-74.896 26.121,-98.711Zm-32.656,286.549c30.468,17.656 65.924,26.498 106.406,26.498c40.442,-0 75.781,-8.842 106.002,-26.498c30.221,-17.682 53.646,-42.643 70.3,-74.909c16.627,-32.265 24.974,-69.909 24.974,-112.929c-0,-43.529 -8.347,-81.303 -24.974,-113.308c-16.654,-32.005 -40.079,-56.848 -70.3,-74.531c-30.221,-17.657 -65.56,-26.497 -106.002,-26.497c-40.482,-0 -75.938,8.84 -106.406,26.497c-30.482,17.683 -54.05,42.526 -70.678,74.531c-16.654,32.005 -24.974,69.779 -24.974,113.308c0,43.02 8.32,80.664 24.974,112.929c16.628,32.266 40.196,57.227 70.678,74.909Z" style="fill:#20254e;fill-rule:nonzero;"/><path d="M7605.12,2370.38c4.597,15.885 6.914,35.338 6.914,58.398l0,231.993l98.334,-0l-0,-263.49c-0,-30.742 -5.391,-57.748 -16.146,-81.055c-10.755,-23.307 -26.498,-41.601 -47.24,-54.934c-20.742,-13.308 -46.224,-19.974 -76.445,-19.974c-22.018,-0 -42.253,4.114 -60.69,12.291c-18.437,8.203 -34.063,21.016 -46.849,38.424c-6.133,8.321 -11.198,18.034 -15.339,28.946l-2.344,-70.442l-89.114,-0l-0,410.234l98.333,-0l0,-231.993c0,-34.83 7.812,-61.471 23.438,-79.909c15.612,-18.437 36.497,-27.656 62.604,-27.656c17.409,0 31.38,4.232 41.875,12.669c10.495,8.464 18.047,20.626 22.669,36.498Z" style="fill:#20254e;fill-rule:nonzero;"/><path d="M2659,3268.84c0,21.002 -4.361,39.179 -13.06,54.544c-8.71,15.364 -21.015,27.409 -36.874,36.107c-15.873,8.711 -34.844,13.059 -56.85,13.059c-19.479,0 -34.453,-4.348 -44.947,-13.059c-10.495,-8.698 -15.743,-20.99 -15.743,-36.875c0,-14.336 4.727,-25.99 14.206,-34.948c9.479,-8.958 25.222,-15.742 47.253,-20.365l106.015,-21.51l0,23.047Zm104.089,88.346c-3.841,-4.089 -5.755,-11.524 -5.755,-22.279l-0,-149.036c-0,-54.792 -14.974,-96.914 -44.948,-126.367c-29.948,-29.454 -74.128,-44.18 -132.513,-44.18c-50.703,-0 -91.94,11.654 -123.685,34.961c-31.758,23.307 -51.732,56.719 -59.922,100.248l99.87,4.609c5.104,-20.483 14.466,-36.225 28.034,-47.24c13.567,-11.015 32.135,-16.523 55.703,-16.523c26.12,-0 45.833,7.304 59.153,21.901c13.308,14.596 19.974,36.484 19.974,65.677l-135.976,26.888c-45.078,8.711 -78.62,23.046 -100.638,43.021c-22.031,19.974 -33.034,47.63 -33.034,82.968c-0,35.339 13.06,62.878 39.18,82.591c26.119,19.727 60.69,29.571 103.711,29.571c25.599,-0 48.645,-3.841 69.14,-11.51c20.482,-7.696 37.513,-18.568 51.081,-32.657c8.594,-8.906 15.065,-18.684 19.857,-29.141c1.706,12.019 4.583,22.397 8.958,30.678c7.162,13.567 17.409,23.033 30.729,28.424c13.308,5.378 28.425,8.06 45.326,8.06c7.161,-0 14.206,-0.261 21.133,-0.769c6.901,-0.52 11.901,-1.289 14.973,-2.304l0,-71.446l-13.059,0c-7.683,0 -13.451,-2.031 -17.292,-6.145Z" style="fill:#20254e;fill-rule:nonzero;"/><path d="M3144.13,3035.3c-20.742,-13.307 -46.237,-19.974 -76.446,-19.974c-22.018,-0 -42.252,4.101 -60.69,12.292c-18.437,8.203 -34.062,21.002 -46.862,38.411c-6.12,8.333 -11.185,18.034 -15.325,28.933l-2.344,-70.417l-89.115,-0l0,410.234l98.334,-0l-0,-232.005c-0,-34.818 7.799,-61.458 23.437,-79.896c15.612,-18.438 36.485,-27.657 62.604,-27.657c17.409,0 31.367,4.22 41.862,12.683c10.495,8.437 18.06,20.625 22.67,36.498c4.609,15.858 6.914,35.325 6.914,58.372l-0,232.005l98.333,-0l-0,-263.503c-0,-30.729 -5.378,-57.747 -16.133,-81.054c-10.755,-23.294 -26.497,-41.602 -47.239,-54.922Z" style="fill:#20254e;fill-rule:nonzero;"/><path d="M3563.57,3303.02c-7.422,20.247 -18.177,35.481 -32.266,45.715c-14.088,10.248 -31.367,15.365 -51.849,15.365c-29.713,-0 -53.398,-12.162 -71.067,-36.484c-17.67,-24.323 -26.498,-56.979 -26.498,-97.956c0,-41.979 8.828,-74.909 26.498,-98.724c17.669,-23.816 41.354,-35.717 71.067,-35.717c20.482,0 37.761,5.131 51.849,15.365c14.089,10.248 24.844,25.352 32.266,45.326c7.422,19.987 11.145,44.557 11.145,73.75c0,28.697 -3.723,53.138 -11.145,73.36Zm11.145,-220.092c-11.276,-21.511 -27.786,-38.151 -49.557,-49.935c-21.771,-11.771 -46.992,-17.669 -75.664,-17.669c-34.323,-0 -64.284,8.711 -89.883,26.119c-25.612,17.422 -45.325,42.254 -59.153,74.519c-13.828,32.266 -20.742,70.182 -20.742,113.698c-0,43.541 6.914,81.432 20.742,113.698c13.828,32.266 33.398,57.122 58.776,74.518c25.338,17.396 55.416,26.12 90.26,26.12c28.672,-0 54.284,-6.146 76.823,-18.438c22.526,-12.291 39.427,-29.44 50.703,-51.471l2.305,60.69l93.724,-0l-0,-545.442l-98.334,-0l0,193.593Z" style="fill:#20254e;fill-rule:nonzero;"/><path d="M4243.44,3129.02c-18.19,14.856 -44.166,22.278 -77.981,22.278l-106.771,0l-0,-175.156l106.771,0c33.815,0 59.791,7.292 77.981,21.888c18.177,14.597 27.266,36.25 27.266,64.922c-0,29.193 -9.089,51.211 -27.266,66.068Zm76.446,-193.594c-35.86,-30.729 -85.794,-46.093 -149.818,-46.093l-211.25,-0l-0,545.442l99.87,-0l-0,-196.667l111.38,0c42.513,0 78.88,-6.901 109.102,-20.742c30.208,-13.815 53.502,-33.919 69.909,-60.312c16.38,-26.368 24.583,-57.721 24.583,-94.102c-0,-54.271 -17.943,-96.797 -53.776,-127.526Z" style="fill:#20254e;fill-rule:nonzero;"/><path d="M4692.46,3260.39c0,33.802 -7.292,59.544 -21.901,77.2c-14.583,17.683 -35.209,26.511 -61.836,26.511c-23.568,-0 -41.094,-8.073 -52.63,-24.206c-11.511,-16.119 -17.279,-41.354 -17.279,-75.664l0,-239.687l-98.333,-0l-0,264.271c-0,48.671 12.161,86.692 36.497,114.075c24.31,27.422 57.227,41.107 98.711,41.107c37.904,-0 68.373,-9.987 91.419,-29.948c13.907,-12.058 24.675,-27.617 32.435,-46.576l1.367,67.305l89.883,-0l0,-410.234l-98.333,-0l0,235.846Z" style="fill:#20254e;fill-rule:nonzero;"/><path d="M5159.53,3328.37c-16.901,23.828 -39.44,35.729 -67.604,35.729c-21.003,-0 -38.919,-5.364 -53.776,-16.133c-14.857,-10.755 -26.25,-26.237 -34.18,-46.471c-7.942,-20.235 -11.914,-44.18 -11.914,-71.836c0,-28.685 3.972,-53.008 11.914,-72.982c7.93,-19.974 19.454,-35.209 34.571,-45.716c15.091,-10.482 33.151,-15.743 54.153,-15.743c28.165,0 50.573,11.785 67.227,35.34c16.627,23.567 24.961,56.601 24.961,99.101c-0,42.005 -8.451,74.896 -25.352,98.711Zm46.485,-286.537c-25.873,-17.682 -56.472,-26.51 -91.81,-26.51c-28.164,-0 -52.761,6.524 -73.75,19.583c-21.003,13.06 -37.136,29.089 -48.399,48.021l0,-193.593l-98.333,-0l0,545.442l93.724,-0l2.305,-60.69c11.77,22.031 28.294,39.18 49.557,51.471c21.25,12.292 46.211,18.438 74.896,18.438c35.338,-0 65.937,-8.828 91.81,-26.511c25.846,-17.656 45.833,-42.487 59.922,-74.505c14.075,-32.005 21.119,-69.779 21.119,-113.32c0,-43.516 -7.044,-81.303 -21.119,-113.321c-14.089,-31.991 -34.076,-56.835 -59.922,-74.505Z" style="fill:#20254e;fill-rule:nonzero;"/><path d="M5471.81,3351.04c-5.378,-5.117 -8.073,-12.8 -8.073,-23.047l-0,-438.658l-98.334,-0l0,448.645c0,33.803 8.959,58.386 26.889,73.75c17.929,15.365 41.745,23.047 71.445,23.047l60.69,-0l0,-76.041l-29.961,-0c-9.726,-0 -17.278,-2.579 -22.656,-7.696Z" style="fill:#20254e;fill-rule:nonzero;"/><rect x="5586.65" y="2882.42" width="102.188" height="87.578" style="fill:#20254e;fill-rule:nonzero;"/><rect x="5588.19" y="3024.54" width="98.346" height="410.234" style="fill:#20254e;fill-rule:nonzero;"/><path d="M5961.55,3095.22c23.568,0 43.412,6.798 59.545,20.365c16.119,13.581 26.237,33.412 30.338,59.532l101.393,-5.378c-4.088,-32.774 -14.713,-60.56 -31.862,-83.359c-17.161,-22.787 -39.309,-40.326 -66.445,-52.618c-27.161,-12.292 -58.138,-18.437 -92.969,-18.437c-40.976,-0 -76.562,8.971 -106.77,26.888c-30.235,17.942 -53.659,42.903 -70.313,74.909c-16.641,32.005 -24.961,69.518 -24.961,112.539c0,43.021 8.32,80.664 24.961,112.93c16.654,32.265 40.078,57.239 70.313,74.895c30.208,17.683 65.794,26.511 106.77,26.511c35.352,-0 66.576,-6.537 93.725,-19.597c27.148,-13.047 49.179,-31.601 66.067,-55.69c16.901,-24.075 27.396,-52.487 31.484,-85.273l-101.393,-4.61c-3.58,29.193 -13.437,50.703 -29.57,64.532c-16.133,13.828 -36.237,20.742 -60.313,20.742c-31.757,-0 -56.341,-11.784 -73.749,-35.338c-17.409,-23.555 -26.12,-56.589 -26.12,-99.102c-0,-41.979 8.711,-74.909 26.12,-98.724c17.408,-23.816 41.992,-35.717 73.749,-35.717Z" style="fill:#20254e;fill-rule:nonzero;"/><path d="M6873.43,3296.5l-100.638,-407.161l-92.956,-0l-100.638,407.161l-99.87,-407.161l-105.248,-0l145.964,545.442l111.393,-0l95.261,-373.36l95.26,373.36l110.625,-0l145.964,-545.442l-106.016,-0l-99.101,407.161Z" style="fill:#20254e;fill-rule:nonzero;"/><path d="M7354.71,3328.76c-17.161,23.554 -41.601,35.338 -73.359,35.338c-31.758,-0 -56.354,-11.784 -73.75,-35.338c-17.422,-23.555 -26.119,-56.589 -26.119,-99.102c-0,-41.979 8.697,-74.909 26.119,-98.724c17.396,-23.816 41.992,-35.717 73.75,-35.717c31.758,0 56.198,11.901 73.359,35.717c17.149,23.815 25.742,56.745 25.742,98.724c0,42.513 -8.593,75.547 -25.742,99.102Zm32.656,-286.928c-30.221,-17.682 -65.559,-26.51 -106.015,-26.51c-40.469,-0 -75.938,8.828 -106.406,26.51c-30.469,17.67 -54.037,42.514 -70.664,74.505c-16.667,32.018 -24.974,69.805 -24.974,113.321c-0,43.021 8.307,80.664 24.974,112.93c16.627,32.265 40.195,57.239 70.664,74.895c30.468,17.683 65.937,26.511 106.406,26.511c40.456,-0 75.794,-8.828 106.015,-26.511c30.209,-17.656 53.646,-42.63 70.287,-74.895c16.641,-32.266 24.974,-69.909 24.974,-112.93c0,-43.516 -8.333,-81.303 -24.974,-113.321c-16.641,-31.991 -40.078,-56.835 -70.287,-74.505Z" style="fill:#20254e;fill-rule:nonzero;"/><path d="M7683.5,3051.05c-11.889,12.24 -21.068,29.844 -27.669,52.552l-2.67,-79.062l-92.188,-0l0,410.234l98.334,-0l-0,-236.615c-0,-20.989 3.45,-38.02 10.377,-51.08c6.914,-13.06 17.279,-22.67 31.108,-28.815c13.827,-6.146 31.236,-9.219 52.239,-9.219l38.411,-0l0,-84.505l-37.643,-0c-29.713,-0 -53.151,8.827 -70.299,26.51Z" style="fill:#20254e;fill-rule:nonzero;"/><path d="M8242.4,3024.54l-121.381,-0l-168.241,185.143l-0,-320.351l-98.334,-0l0,545.442l98.334,-0l-0,-112.93l64.531,-68.359l119.843,181.289l110.626,-0l-165.938,-239.687l160.56,-170.547Z" style="fill:#20254e;fill-rule:nonzero;"/><path d="M8615.36,3263.09c-10.494,-16.133 -28.163,-29.453 -53.007,-39.961c-24.844,-10.482 -58.763,-19.062 -101.784,-25.728c-20.482,-3.582 -36.875,-7.553 -49.167,-11.902c-12.291,-4.349 -21.133,-10.117 -26.51,-17.291c-5.378,-7.162 -8.06,-16.133 -8.06,-26.888c-0,-15.352 5.886,-27.657 17.682,-36.876c11.771,-9.219 29.18,-13.828 52.227,-13.828c15.365,0 28.672,2.696 39.948,8.073c11.263,5.378 20.221,13.19 26.888,23.424c6.653,10.261 11.249,22.293 13.828,36.107l99.101,-4.609c-3.58,-26.615 -12.421,-50.325 -26.497,-71.054c-14.089,-20.743 -33.685,-37.136 -58.776,-49.181c-25.104,-12.017 -56.081,-18.046 -92.956,-18.046c-56.849,-0 -100,11.914 -129.44,35.729c-29.466,23.815 -44.179,54.922 -44.179,93.347c-0,23.554 4.987,43.281 14.987,59.153c9.974,15.859 27.005,29.062 51.08,39.557c24.063,10.495 57.097,19.336 99.102,26.498c25.091,4.609 44.049,9.218 56.848,13.828c12.8,4.609 21.524,9.987 26.121,16.146c4.609,6.132 6.913,13.815 6.913,23.034c0,15.885 -6.536,27.539 -19.595,34.961c-13.061,7.421 -31.108,11.132 -54.154,11.132c-28.177,0 -49.441,-5.885 -63.764,-17.669c-14.348,-11.784 -23.307,-28.424 -26.888,-49.935l-100.638,4.609c2.044,26.641 10.496,50.443 25.352,71.458c14.857,21.004 35.977,37.384 63.373,49.154c27.396,11.771 61.327,17.67 101.796,17.67c35.352,-0 66.198,-4.74 92.578,-14.206c26.354,-9.479 46.862,-23.437 61.459,-41.875c14.596,-18.437 21.888,-40.716 21.888,-66.836c-0,-22.539 -5.261,-41.862 -15.756,-57.995Z" style="fill:#20254e;fill-rule:nonzero;"/></g></svg>