<?xml version="1.0" encoding="UTF-8" standalone="no"?><!DOCTYPE svg PUBLIC "-//W3C//DTD SVG 1.1//EN" "http://www.w3.org/Graphics/SVG/1.1/DTD/svg11.dtd"><svg width="100%" height="100%" viewBox="0 0 2580 542" version="1.1" xmlns="http://www.w3.org/2000/svg" xmlns:xlink="http://www.w3.org/1999/xlink" xml:space="preserve" xmlns:serif="http://www.serif.com/" style="fill-rule:evenodd;clip-rule:evenodd;stroke-linejoin:round;stroke-miterlimit:2;"><g><path d="M752.192,534.533l158.183,0l0,-58.008l-41.717,0l19.721,-57.954l148.104,-0l17.875,57.954l-41.695,0l-0,58.008l158.779,0l-0,-58.008l-38.571,0l-126.754,-364.217l-88.609,0l-126.766,364.217l-38.55,0l-0,58.008Zm151.037,-174.15l49.967,-143.404c5.946,-20.816 7.729,-36.879 7.729,-36.879l1.783,-0c0,-0 1.188,16.063 7.729,36.879l49.526,143.404l-116.734,0Zm288.688,65.913c-0,82.667 38.65,115.371 99.308,115.371c73.008,-0 104.438,-51.975 110.029,-65.138l1.65,-0.004c-0.175,2.354 -0.479,7.279 -0.479,12.817l0,11.295c0,21.413 12.496,33.896 39.254,33.896l74.929,0l0,-58.008l-29.141,0c-10.163,0 -13.08,-2.65 -13.08,-10.971l0,-234.308l-121.908,-0l0,56.496l46.379,-0l0,78.495c0,54.709 -31.516,108.234 -83.846,108.234c-38.062,-0 -47.575,-24.979 -47.575,-61.25l0,-181.975l-122.504,-0l0,56.496l46.984,-0l-0,138.554Zm642.27,-2.971c0,101.696 83.855,114.183 126.667,114.183c13.684,0 23.196,-1.787 23.196,-1.787l-0,-59.196l-13.675,0c-21.412,0 -60.658,-9.188 -60.658,-60.929l-0,-127.854l68.979,-0l-0,-56.496l-68.979,-0l-0,-82.663l-73.15,0l-0,82.663l-48.759,-0l0,56.496l46.379,-0l0,135.583Zm221.801,-243.817l76.12,0l0,-67.2l-76.12,0l-0,67.2Zm-43.409,355.025l162.938,0l-0,-58.008l-43.409,0l0,-245.279l-122.504,-0l0,56.496l46.975,-0l0,188.783l-44,0l0,58.008Zm191.483,0l162.942,0l0,-58.008l-43.416,0l-0,-78.167c-0,-52.929 32.12,-105.266 86.825,-105.266c38.066,-0 48.17,24.979 48.17,61.85l0,179.591l118.938,0l-0,-58.008l-44.008,0l-0,-137.042c-0,-80.287 -36.871,-115.37 -101.688,-115.37c-76.117,-0 -108.237,58.279 -111.804,67.791l-1.188,0c0,0 1.188,-6.537 1.188,-13.079l-0,-13.683c-0,-21.409 -12.483,-33.896 -39.246,-33.896l-79.692,-0l0,56.496l33.904,-0c8.326,-0 13.08,4.758 13.08,13.079l-0,175.704l-44.005,0l0,58.008Z" style="fill:#43499d;fill-rule:nonzero;"/><path d="M1529.77,468.525c-0,49.354 67.792,73.142 123.1,73.142c69.575,-0 127.854,-30.921 127.854,-92.175c-0,-59.467 -54.712,-78.492 -101.1,-93.363c-33.896,-10.108 -63.633,-20.221 -63.633,-45.192c-0,-19.033 20.225,-27.358 44.012,-27.358c26.763,0 44.596,9.513 44.596,24.979l0,17.242l64.821,0l-0,-38.65c-0,-45.796 -65.413,-63.037 -109.417,-63.037c-55.308,-0 -119.533,22.599 -119.533,86.824c-0,57.684 51.146,78.492 95.746,93.959c40.433,14.862 68.979,21.4 68.979,46.975c-0,20.221 -21.404,30.921 -51.734,30.921c-31.516,-0 -59.466,-10.7 -59.466,-31.517l-0,-17.833l-64.225,-0l-0,35.083Z" style="fill:#43499d;fill-rule:nonzero;"/><path d="M517.446,196.779c-27.721,-103.104 -53.388,-196.321 -138.529,-196.321c-85.142,0 -110.804,93.217 -138.525,196.321c-17.454,64.925 -37.238,138.525 -73.7,192.833c-39.675,59.1 -92.571,86.692 -166.513,86.738c-0.1,0 -0.179,0.079 -0.179,0.179l-0,57.821c-0,0.104 0.083,0.183 0.183,0.183c111.405,-0.058 177.475,-52.933 221.009,-122.521c32.166,-51.42 53.691,-117.07 75.395,-200.104c24.846,-95.05 44.442,-153.262 82.33,-153.262c37.891,-0 57.487,58.212 82.333,153.262c21.692,82.988 66.792,206.521 174.8,206.663c0.1,-0 0.188,-0.083 0.188,-0.183l-0,-57.826c-0,-0.095 -0.08,-0.174 -0.18,-0.174c-66.345,-0.171 -101.179,-98.742 -118.612,-163.609Z" style="fill:#43499d;fill-rule:nonzero;"/><path d="M168.871,212.637c40.396,-157.7 69.129,-194.554 83.617,-207.141c1.912,-1.663 0.625,-4.804 -1.905,-4.646c-99.2,6.171 -113.654,108.513 -137.812,196.367c-23.275,84.637 -42.825,145.733 -84.375,159.891c-2.313,0.792 -12.892,3.263 -28.217,3.28c-0.096,-0 -0.179,0.079 -0.179,0.179l0,57.821c0,0.1 0.071,0.183 0.171,0.183c14.621,-0.009 40.75,-1.088 63.287,-12.604c66.792,-34.138 91.6,-139.421 105.413,-193.33Z" style="fill:#12a04c;fill-rule:nonzero;"/><path d="M462.633,374.383c-34.325,-56.716 -62.671,-164.241 -81.141,-226.362c-0.734,-2.463 -4.188,-2.517 -5.03,-0.088c-9.579,27.659 -22.283,74.988 -26.179,89.709c-0.775,2.937 -0.737,6.012 0.138,8.925c10.912,36.462 24.262,77.016 40.687,113.816l-77.537,0c-1.083,0 -2.042,0.634 -2.438,1.642c-6.075,15.4 -15.604,37.175 -23.25,52.758c-0.858,1.75 0.429,3.788 2.38,3.788l132.279,0.017c43.154,66.37 111.275,115.887 213.508,115.945c0.1,0 0.188,-0.079 0.188,-0.183l-0,-57.825c-0,-0.096 -0.084,-0.175 -0.18,-0.175c-83.733,-0.058 -138.637,-41.933 -173.425,-101.967Z" style="fill:#12a04c;fill-rule:nonzero;"/></g></svg>