<?xml version="1.0" encoding="UTF-8"?>
<svg width="91px" height="73px" viewBox="0 0 91 73" xmlns="http://www.w3.org/2000/svg" xmlns:xlink="http://www.w3.org/1999/xlink" version="1.1">
 <!-- Generated by Pixelmator Pro 2.0.1 -->
 <g id="group">
  <g id="group-1">
   <path id="Path" d="M87.215 31.661 C86.484 31.613 69.232 30.491 58.269 37.201 54.46 39.531 51.503 42.733 49.252 45.967 L49.252 32.311 C50.068 32.356 50.987 32.388 52.014 32.388 57.854 32.388 66.769 31.398 74.862 26.447 88.362 18.187 90.067 4.771 90.133 4.204 90.233 3.346 89.978 2.486 89.426 1.822 88.875 1.157 88.076 0.747 87.215 0.687 86.484 0.638 69.232 -0.482 58.269 6.226 54.46 8.557 51.503 11.759 49.252 14.992 L49.252 8.64 C49.252 6.894 47.838 5.48 46.092 5.48 44.347 5.48 42.933 6.894 42.933 8.64 L42.933 29.687 C40.921 27.11 38.166 24.526 34.38 22.272 21.16 14.403 4.296 15.944 3.584 16.014 2.713 16.099 1.917 16.541 1.385 17.235 0.852 17.929 0.631 18.812 0.774 19.675 0.868 20.248 3.23 33.802 14.699 40.63 23.554 45.9 37.453 46.758 42.933 46.885 L42.933 69.729 C42.933 71.474 44.347 72.889 46.092 72.889 47.838 72.889 49.252 71.474 49.252 69.729 L49.252 63.285 C50.068 63.331 50.987 63.363 52.014 63.363 57.854 63.363 66.769 62.372 74.862 57.421 88.362 49.161 90.067 35.745 90.133 35.179 90.233 34.321 89.978 33.46 89.426 32.796 88.875 32.131 88.076 31.721 87.215 31.661 Z M61.567 11.617 C68.02 7.667 77.698 6.975 82.989 6.918 81.711 10.678 78.655 16.717 71.564 21.057 64.006 25.679 55.307 26.177 50.451 26.028 52.126 21.91 55.594 15.271 61.567 11.617 Z M17.932 35.2 C12.188 31.781 9.317 25.928 7.997 22.175 13.3 22.193 23.167 22.952 31.147 27.702 38.035 31.802 40.564 37.14 41.492 40.51 35.803 40.267 24.757 39.262 17.932 35.2 Z M71.564 52.031 C64.006 56.654 55.307 57.155 50.451 57.002 52.126 52.884 55.594 46.245 61.567 42.591 68.02 38.642 77.698 37.949 82.989 37.893 81.711 41.652 78.655 47.691 71.564 52.031 Z" fill="#000000" fill-opacity="1" stroke="none"/>
  </g>
 </g>
</svg>
